<svg width="132" height="28" viewBox="0 0 132 28" fill="none" xmlns="http://www.w3.org/2000/svg">
<rect x="0.5" y="0.5" width="131" height="27" rx="3.5" stroke="black" stroke-opacity="0.12"/>
<path d="M17 18.3275L21.635 21.125L20.405 15.8525L24.5 12.305L19.1075 11.8475L17 6.875L14.8925 11.8475L9.5 12.305L13.595 15.8525L12.365 21.125L17 18.3275Z" fill="black" fill-opacity="0.56"/>
<path d="M42.3458 14.3447H39.8233L39.8096 13.2852H42.0997C42.4779 13.2852 42.8083 13.2214 43.0909 13.0938C43.3735 12.9661 43.5922 12.7839 43.7471 12.5469C43.9067 12.3053 43.9864 12.0182 43.9864 11.6855C43.9864 11.321 43.9158 11.0247 43.7745 10.7969C43.6378 10.5645 43.4259 10.3958 43.1388 10.291C42.8562 10.1816 42.4962 10.127 42.0587 10.127H40.1173V19H38.7979V9.04688H42.0587C42.5691 9.04688 43.0248 9.09928 43.4259 9.2041C43.8269 9.30436 44.1664 9.46387 44.4444 9.68262C44.727 9.89681 44.9412 10.1702 45.087 10.5029C45.2328 10.8356 45.3057 11.2344 45.3057 11.6992C45.3057 12.1094 45.2009 12.4808 44.9913 12.8135C44.7817 13.1416 44.49 13.4105 44.1163 13.6201C43.7471 13.8298 43.3142 13.9642 42.8175 14.0234L42.3458 14.3447ZM42.2843 19H39.3038L40.0489 17.9268H42.2843C42.7035 17.9268 43.059 17.8538 43.3507 17.708C43.6469 17.5622 43.8725 17.3571 44.0274 17.0928C44.1824 16.8239 44.2598 16.5072 44.2598 16.1426C44.2598 15.7734 44.1938 15.4544 44.0616 15.1855C43.9294 14.9167 43.7221 14.7093 43.4395 14.5635C43.157 14.4176 42.7924 14.3447 42.3458 14.3447H40.4659L40.4796 13.2852H43.0499L43.3302 13.668C43.8087 13.709 44.2143 13.8457 44.547 14.0781C44.8796 14.306 45.1326 14.5977 45.3057 14.9531C45.4835 15.3086 45.5723 15.7005 45.5723 16.1289C45.5723 16.7487 45.4356 17.2728 45.1622 17.7012C44.8933 18.125 44.5128 18.4486 44.0206 18.6719C43.5284 18.8906 42.9496 19 42.2843 19ZM52.509 16.9971L55.9202 11.6035H57.1916V19H55.9202V13.6064L52.509 19H51.2512V11.6035H52.509V16.9971ZM62.1536 15.4658H60.7933V14.6865H62.0511C62.402 14.6865 62.68 14.6432 62.8851 14.5566C63.0902 14.4655 63.236 14.3402 63.3226 14.1807C63.4092 14.0212 63.4525 13.8343 63.4525 13.6201C63.4525 13.4287 63.4023 13.2487 63.3021 13.0801C63.2064 12.9069 63.0514 12.7679 62.8372 12.6631C62.623 12.5537 62.3359 12.499 61.9759 12.499C61.6842 12.499 61.4199 12.5514 61.1829 12.6562C60.946 12.7565 60.7568 12.8955 60.6155 13.0732C60.4788 13.2464 60.4105 13.4424 60.4105 13.6611H59.1458C59.1458 13.21 59.2734 12.8226 59.5286 12.499C59.7884 12.1709 60.1325 11.918 60.5609 11.7402C60.9938 11.5625 61.4655 11.4736 61.9759 11.4736C62.4043 11.4736 62.7871 11.5215 63.1243 11.6172C63.4661 11.7083 63.7555 11.8451 63.9925 12.0273C64.2295 12.2051 64.4095 12.4284 64.5325 12.6973C64.6601 12.9616 64.7239 13.2692 64.7239 13.6201C64.7239 13.8708 64.6647 14.1077 64.5462 14.3311C64.4277 14.5544 64.2568 14.7526 64.0335 14.9258C63.8102 15.0944 63.539 15.2266 63.22 15.3223C62.9056 15.418 62.5501 15.4658 62.1536 15.4658ZM60.7933 14.9873H62.1536C62.5957 14.9873 62.9853 15.0306 63.3226 15.1172C63.6598 15.1992 63.9424 15.3223 64.1702 15.4863C64.3981 15.6504 64.569 15.8532 64.6829 16.0947C64.8014 16.3317 64.8607 16.6051 64.8607 16.915C64.8607 17.2614 64.79 17.5736 64.6488 17.8516C64.512 18.125 64.3161 18.3574 64.0609 18.5488C63.8057 18.7402 63.5003 18.8861 63.1448 18.9863C62.7939 19.0866 62.4043 19.1367 61.9759 19.1367C61.4974 19.1367 61.0325 19.0547 60.5814 18.8906C60.1302 18.7266 59.7588 18.4736 59.4671 18.1318C59.1754 17.7855 59.0296 17.3457 59.0296 16.8125H60.2943C60.2943 17.0358 60.3649 17.2477 60.5062 17.4482C60.6474 17.6488 60.8434 17.8105 61.0941 17.9336C61.3493 18.0566 61.6432 18.1182 61.9759 18.1182C62.3314 18.1182 62.6276 18.0635 62.8646 17.9541C63.1015 17.8447 63.2793 17.6989 63.3978 17.5166C63.5208 17.3343 63.5823 17.1361 63.5823 16.9219C63.5823 16.6439 63.5277 16.4206 63.4183 16.252C63.3089 16.0833 63.1403 15.9603 62.9124 15.8828C62.6891 15.8008 62.402 15.7598 62.0511 15.7598H60.7933V14.9873ZM71.4154 8.38379H72.4545C72.4545 8.8304 72.3861 9.18587 72.2494 9.4502C72.1127 9.70996 71.9258 9.91048 71.6889 10.0518C71.4564 10.193 71.1921 10.3001 70.8959 10.373C70.6042 10.446 70.3012 10.5166 69.9867 10.585C69.5948 10.667 69.2302 10.7969 68.893 10.9746C68.5603 11.1478 68.2732 11.3939 68.0316 11.7129C67.7947 12.0319 67.6192 12.4466 67.5053 12.957C67.3959 13.4674 67.3663 14.0986 67.4164 14.8506V15.4795H66.3773V14.8506C66.3773 14.0075 66.4571 13.2715 66.6166 12.6426C66.7807 12.0137 67.0108 11.4827 67.307 11.0498C67.6033 10.6169 67.9542 10.2728 68.3598 10.0176C68.7699 9.76237 69.2211 9.58691 69.7133 9.49121C70.0688 9.42285 70.3741 9.34993 70.6293 9.27246C70.8845 9.19043 71.0782 9.08105 71.2104 8.94434C71.3471 8.80762 71.4154 8.62077 71.4154 8.38379ZM69.9184 12.0273C70.4014 12.0273 70.8321 12.1117 71.2104 12.2803C71.5886 12.4489 71.9099 12.6836 72.1742 12.9844C72.4385 13.2852 72.6391 13.6406 72.7758 14.0508C72.9171 14.4564 72.9877 14.8984 72.9877 15.377V15.5273C72.9877 16.0423 72.9125 16.5208 72.7621 16.9629C72.6163 17.4004 72.3998 17.7832 72.1127 18.1113C71.8301 18.4349 71.4838 18.6878 71.0736 18.8701C70.668 19.0524 70.2055 19.1436 69.6859 19.1436C69.1664 19.1436 68.7016 19.0524 68.2914 18.8701C67.8858 18.6878 67.5395 18.4349 67.2523 18.1113C66.9652 17.7832 66.7465 17.4004 66.5961 16.9629C66.4503 16.5208 66.3773 16.0423 66.3773 15.5273V15.377C66.3773 15.263 66.3979 15.1514 66.4389 15.042C66.4799 14.9326 66.53 14.821 66.5893 14.707C66.6531 14.5931 66.71 14.4723 66.7602 14.3447C66.9288 13.9346 67.1589 13.554 67.4506 13.2031C67.7468 12.8522 68.1 12.5697 68.5102 12.3555C68.9249 12.1367 69.3943 12.0273 69.9184 12.0273ZM69.6723 13.0596C69.2074 13.0596 68.8246 13.1667 68.5238 13.3809C68.2276 13.5951 68.0066 13.8799 67.8607 14.2354C67.7149 14.5863 67.642 14.9668 67.642 15.377V15.5273C67.642 15.8737 67.683 16.2018 67.765 16.5117C67.8471 16.8216 67.9701 17.0973 68.1342 17.3389C68.3028 17.5758 68.5147 17.7627 68.7699 17.8994C69.0297 18.0361 69.335 18.1045 69.6859 18.1045C70.0368 18.1045 70.3399 18.0361 70.5951 17.8994C70.8503 17.7627 71.06 17.5758 71.224 17.3389C71.3881 17.0973 71.5111 16.8216 71.5932 16.5117C71.6752 16.2018 71.7162 15.8737 71.7162 15.5273V15.377C71.7162 15.0671 71.6752 14.7731 71.5932 14.4951C71.5111 14.2171 71.3858 13.971 71.2172 13.7568C71.0531 13.5426 70.8412 13.374 70.5814 13.251C70.3262 13.1234 70.0232 13.0596 69.6723 13.0596ZM75.7348 13.0254V21.8438H74.4634V11.6035H75.6255L75.7348 13.0254ZM80.7182 15.2402V15.3838C80.7182 15.9215 80.6544 16.4206 80.5268 16.8809C80.3992 17.3366 80.2124 17.7331 79.9663 18.0703C79.7248 18.4076 79.4263 18.6696 79.0708 18.8564C78.7153 19.0433 78.3074 19.1367 77.8471 19.1367C77.3777 19.1367 76.963 19.0592 76.603 18.9043C76.243 18.7493 75.9376 18.5238 75.687 18.2275C75.4363 17.9313 75.2358 17.5758 75.0854 17.1611C74.9396 16.7464 74.8393 16.2793 74.7846 15.7598V14.9941C74.8393 14.4473 74.9419 13.9574 75.0923 13.5244C75.2427 13.0915 75.4409 12.7223 75.687 12.417C75.9376 12.1071 76.2407 11.8724 76.5962 11.7129C76.9516 11.5488 77.3618 11.4668 77.8266 11.4668C78.2915 11.4668 78.7039 11.5579 79.0639 11.7402C79.424 11.918 79.727 12.1732 79.9731 12.5059C80.2192 12.8385 80.4038 13.2373 80.5268 13.7021C80.6544 14.1624 80.7182 14.6751 80.7182 15.2402ZM79.4468 15.3838V15.2402C79.4468 14.8711 79.408 14.5247 79.3305 14.2012C79.2531 13.873 79.1323 13.5859 78.9682 13.3398C78.8087 13.0892 78.6037 12.8932 78.353 12.752C78.1024 12.6061 77.8039 12.5332 77.4575 12.5332C77.1385 12.5332 76.8605 12.5879 76.6235 12.6973C76.3911 12.8066 76.1929 12.9548 76.0288 13.1416C75.8647 13.3239 75.7303 13.5335 75.6255 13.7705C75.5252 14.0029 75.45 14.2445 75.3999 14.4951V16.2656C75.491 16.5846 75.6186 16.8854 75.7827 17.168C75.9468 17.446 76.1655 17.6715 76.4389 17.8447C76.7124 18.0133 77.0565 18.0977 77.4712 18.0977C77.813 18.0977 78.1069 18.027 78.353 17.8857C78.6037 17.7399 78.8087 17.5417 78.9682 17.291C79.1323 17.0404 79.2531 16.7533 79.3305 16.4297C79.408 16.1016 79.4468 15.7529 79.4468 15.3838ZM86.8629 17.7354V13.9277C86.8629 13.6361 86.8036 13.3831 86.6851 13.1689C86.5712 12.9502 86.398 12.7816 86.1656 12.6631C85.9332 12.5446 85.6461 12.4854 85.3043 12.4854C84.9852 12.4854 84.705 12.54 84.4634 12.6494C84.2265 12.7588 84.0396 12.9023 83.9029 13.0801C83.7707 13.2578 83.7046 13.4492 83.7046 13.6543H82.44C82.44 13.39 82.5084 13.1279 82.6451 12.8682C82.7818 12.6084 82.9778 12.3737 83.233 12.1641C83.4927 11.9499 83.8026 11.7812 84.1627 11.6582C84.5272 11.5306 84.9328 11.4668 85.3795 11.4668C85.9172 11.4668 86.3912 11.5579 86.8013 11.7402C87.216 11.9225 87.5396 12.1982 87.772 12.5674C88.009 12.932 88.1275 13.39 88.1275 13.9414V17.3867C88.1275 17.6328 88.148 17.8949 88.189 18.1729C88.2346 18.4508 88.3007 18.6901 88.3873 18.8906V19H87.0679C87.0041 18.8542 86.954 18.6605 86.9175 18.4189C86.8811 18.1729 86.8629 17.945 86.8629 17.7354ZM87.0816 14.5156L87.0953 15.4043H85.817C85.4569 15.4043 85.1356 15.4339 84.8531 15.4932C84.5705 15.5479 84.3336 15.6322 84.1421 15.7461C83.9507 15.86 83.8049 16.0036 83.7046 16.1768C83.6044 16.3454 83.5543 16.5436 83.5543 16.7715C83.5543 17.0039 83.6067 17.2158 83.7115 17.4072C83.8163 17.5986 83.9735 17.7513 84.1832 17.8652C84.3974 17.9746 84.6594 18.0293 84.9693 18.0293C85.3567 18.0293 85.6985 17.9473 85.9947 17.7832C86.2909 17.6191 86.5256 17.4186 86.6988 17.1816C86.8765 16.9447 86.9722 16.7145 86.9859 16.4912L87.5259 17.0996C87.494 17.291 87.4074 17.5029 87.2662 17.7354C87.1249 17.9678 86.9358 18.1911 86.6988 18.4053C86.4664 18.6149 86.1884 18.7904 85.8648 18.9316C85.5458 19.0684 85.1858 19.1367 84.7847 19.1367C84.2834 19.1367 83.8436 19.0387 83.4654 18.8428C83.0917 18.6468 82.8 18.3848 82.5904 18.0566C82.3853 17.724 82.2828 17.3525 82.2828 16.9424C82.2828 16.5459 82.3602 16.1973 82.5152 15.8965C82.6701 15.5911 82.8934 15.3382 83.1851 15.1377C83.4768 14.9326 83.8277 14.7777 84.2379 14.6729C84.648 14.568 85.106 14.5156 85.6119 14.5156H87.0816ZM95.3043 14.8096V15.835H91.3942V14.8096H95.3043ZM91.6608 11.6035V19H90.3961V11.6035H91.6608ZM96.3297 11.6035V19H95.0582V11.6035H96.3297ZM103.554 14.8096V15.835H99.6443V14.8096H103.554ZM99.9109 11.6035V19H98.6462V11.6035H99.9109ZM104.58 11.6035V19H103.308V11.6035H104.58ZM106.452 15.3838V15.2266C106.452 14.6934 106.529 14.1989 106.684 13.7432C106.839 13.2829 107.063 12.8841 107.354 12.5469C107.646 12.2051 107.999 11.9408 108.414 11.7539C108.829 11.5625 109.293 11.4668 109.808 11.4668C110.328 11.4668 110.795 11.5625 111.21 11.7539C111.629 11.9408 111.985 12.2051 112.276 12.5469C112.572 12.8841 112.798 13.2829 112.953 13.7432C113.108 14.1989 113.185 14.6934 113.185 15.2266V15.3838C113.185 15.917 113.108 16.4115 112.953 16.8672C112.798 17.3229 112.572 17.7217 112.276 18.0635C111.985 18.4007 111.631 18.665 111.217 18.8564C110.806 19.0433 110.342 19.1367 109.822 19.1367C109.303 19.1367 108.835 19.0433 108.421 18.8564C108.006 18.665 107.651 18.4007 107.354 18.0635C107.063 17.7217 106.839 17.3229 106.684 16.8672C106.529 16.4115 106.452 15.917 106.452 15.3838ZM107.717 15.2266V15.3838C107.717 15.7529 107.76 16.1016 107.846 16.4297C107.933 16.7533 108.063 17.0404 108.236 17.291C108.414 17.5417 108.635 17.7399 108.899 17.8857C109.164 18.027 109.471 18.0977 109.822 18.0977C110.168 18.0977 110.471 18.027 110.731 17.8857C110.996 17.7399 111.214 17.5417 111.387 17.291C111.561 17.0404 111.691 16.7533 111.777 16.4297C111.868 16.1016 111.914 15.7529 111.914 15.3838V15.2266C111.914 14.862 111.868 14.5179 111.777 14.1943C111.691 13.8662 111.558 13.5768 111.381 13.3262C111.207 13.071 110.989 12.8704 110.724 12.7246C110.465 12.5788 110.159 12.5059 109.808 12.5059C109.462 12.5059 109.157 12.5788 108.892 12.7246C108.633 12.8704 108.414 13.071 108.236 13.3262C108.063 13.5768 107.933 13.8662 107.846 14.1943C107.76 14.5179 107.717 14.862 107.717 15.2266ZM118.011 19.1367C117.496 19.1367 117.029 19.0501 116.609 18.877C116.195 18.6992 115.837 18.4508 115.536 18.1318C115.24 17.8128 115.012 17.4346 114.852 16.9971C114.693 16.5596 114.613 16.0811 114.613 15.5615V15.2744C114.613 14.6729 114.702 14.1374 114.88 13.668C115.058 13.194 115.299 12.793 115.604 12.4648C115.91 12.1367 116.256 11.8883 116.643 11.7197C117.031 11.5511 117.432 11.4668 117.847 11.4668C118.375 11.4668 118.831 11.5579 119.214 11.7402C119.601 11.9225 119.918 12.1777 120.164 12.5059C120.41 12.8294 120.592 13.2122 120.711 13.6543C120.829 14.0918 120.889 14.5703 120.889 15.0898V15.6572H115.365V14.625H119.624V14.5293C119.606 14.2012 119.537 13.8822 119.419 13.5723C119.305 13.2624 119.123 13.0072 118.872 12.8066C118.621 12.6061 118.28 12.5059 117.847 12.5059C117.559 12.5059 117.295 12.5674 117.054 12.6904C116.812 12.8089 116.605 12.9867 116.432 13.2236C116.258 13.4606 116.124 13.75 116.028 14.0918C115.933 14.4336 115.885 14.8278 115.885 15.2744V15.5615C115.885 15.9124 115.933 16.2428 116.028 16.5527C116.128 16.8581 116.272 17.127 116.459 17.3594C116.65 17.5918 116.88 17.7741 117.149 17.9062C117.423 18.0384 117.733 18.1045 118.079 18.1045C118.526 18.1045 118.904 18.0133 119.214 17.8311C119.524 17.6488 119.795 17.4049 120.027 17.0996L120.793 17.708C120.633 17.9495 120.431 18.1797 120.184 18.3984C119.938 18.6172 119.635 18.7949 119.275 18.9316C118.92 19.0684 118.498 19.1367 118.011 19.1367Z" fill="black" fill-opacity="0.87"/>
</svg>
